<?xml version="1.0" encoding="utf-8"?>
<!-- Generator: Adobe Illustrator 16.0.0, SVG Export Plug-In . SVG Version: 6.00 Build 0)  -->
<svg version="1.2" baseProfile="tiny" id="humbleSVG" xmlns="http://www.w3.org/2000/svg" xmlns:xlink="http://www.w3.org/1999/xlink"
	 x="0px" y="0px" width="124px" height="96px" viewBox="0 0 124 96" xml:space="preserve">
<path d="M54.5092773,95.0722656c-31.4726563-0.4306641-36.4492188-12.46875-36.640625-29.3505859
	s6.5087891-27.8955078,28.3920898-35.6806641C80.6591797,17.8027344,69.7578125,2.8623047,69.7578125,2.8623047
	S84.75,12.9160156,61.1601563,36.5976563C34.4277344,63.4345703,52,69.5,52,69.5s-3.1767578-5.7216797-2.0991211-10.6425781
	C50.9536133,54.0507813,52.9956055,52.75,55.125,50.2910156c1.8217773-2.1025391,7.0390625-5.9775391,7.0390625-5.9775391
	S72.0126953,49.2949219,75.4492188,51.25c7.7001953,4.3798828,12.1103516,7.0820313,12.1025391,20.3730469
	C87.5449219,82.7871094,81.8212891,95.4462891,54.5092773,95.0722656z"/>
<path d="M54.9248047,21.6113281l4.6865234-3.125c0,0-3.9829102-2.3125-4.1264648-7.222168
	c-0.1474609-5.0410156,1.4741211-8.0478516,1.4741211-8.0478516s-4.9526367,4.0678711-4.8051758,8.637207
	S54.9248047,21.6113281,54.9248047,21.6113281z"/>
<path d="M40.324707,27.6816406l9.7299805-3.7539063L7.5102539,1.3457031c0,0-3.8618164-1.5981445-5.3696289,1.5166016
	C0.5053711,6.2402344,3.3964844,8.0493164,3.3964844,8.0493164L40.324707,27.6816406z"/>
<path d="M65.2529297,40.734375l5.0019531-6.5332031l51.7373047,26.8603516c0,0,3.1455078,2.3232422,1.2099609,5.46875
	c-1.7939453,2.9150391-5.3242188,1.1621094-5.3242188,1.1621094L65.2529297,40.734375z"/>
</svg>
